<svg xmlns="http://www.w3.org/2000/svg" viewBox="0 0 200 200"><defs><style>.cls-1{fill:#2b2054;}.cls-2{fill:#be75ff;}.cls-3{fill:#feb9eb;}.cls-4{fill:#a061ff;}.cls-5{fill:#9f48ff;}.cls-6{fill:#d783eb;}.cls-7{fill:#8b38d6;}.cls-8{fill:#8536cd;}.cls-9{fill:#fff;}</style></defs><title>crystal2</title><g id="objects"><rect class="cls-1" x="-6.33" y="-6.33" width="212.67" height="212.67"/><path class="cls-2" d="M153.23,97.7a3.25,3.25,0,0,1,0,4.6l-50.92,50.93a3.27,3.27,0,0,1-4.61,0L46.77,102.31a3.27,3.27,0,0,1,0-4.61L97.7,46.77a3.27,3.27,0,0,1,4.61,0Z"/><path class="cls-3" d="M132.05,76.51,74.49,118.12l-3.3-4.57L128,72.47Zm-9.46-9.46-10.5-10.5L63.79,91.47l8.59,11.88Z"/><path class="cls-4" d="M74.57,130.1,97.7,153.23a3.27,3.27,0,0,0,4.61,0L135,120.54l7.7-20.54H60.06Z"/><path class="cls-5" d="M98.28,46.32a3,3,0,0,0-.58.45L46.77,97.7a3.21,3.21,0,0,0-1,2.3H80.93Z"/><path class="cls-6" d="M119.07,100h35.11a3.26,3.26,0,0,0-1-2.3L102.31,46.77a4.1,4.1,0,0,0-.59-.46Z"/><path class="cls-7" d="M97.7,153.23a3.23,3.23,0,0,0,.59.46L80.93,100H45.82a3.25,3.25,0,0,0,1,2.31Z"/><path class="cls-8" d="M119.07,100l-17.35,53.69a4.1,4.1,0,0,0,.59-.46l50.92-50.93a3.26,3.26,0,0,0,1-2.3Z"/><path class="cls-9" d="M80.93,71.92c-5.05,1.64-6.38,3-8,8-1.64-5-3-6.38-8-8,5.06-1.64,6.38-3,8-8C74.55,69,75.88,70.28,80.93,71.92Z"/><path class="cls-9" d="M90.24,83.76c-2.74.89-3.46,1.61-4.35,4.36-.89-2.74-1.61-3.46-4.36-4.35,2.74-.89,3.47-1.61,4.35-4.35C86.77,82.16,87.49,82.88,90.24,83.76Z"/></g></svg>