<svg xmlns="http://www.w3.org/2000/svg" viewBox="0 0 200 200"><defs><style>.cls-1{fill:#2b2054;}.cls-2{fill:#24ae94;}.cls-3{fill:#188989;}.cls-4{fill:#3ac1b0;}.cls-5{fill:#41d9c6;}.cls-6{fill:#60e9cf;}.cls-7{fill:#69ffe3;}.cls-8{fill:#f2fffd;}.cls-9{fill:#fff;}</style></defs><title>crystal1</title><g id="objects"><rect class="cls-1" x="-6.33" y="-6.33" width="212.67" height="212.67"/><path class="cls-2" d="M138.31,133.63a13,13,0,0,0,3.31-8V74.36a13.09,13.09,0,0,0-3.31-8l-16.6-16.6a13,13,0,0,0-8-3.31H90.47a13,13,0,0,0-8,3.31L65.88,66.37a13,13,0,0,0-3.32,8v51.28a13,13,0,0,0,3.32,8l16.6,16.61a13,13,0,0,0,8,3.31h23.24a13,13,0,0,0,8-3.31Z"/><path class="cls-3" d="M80.3,124V76.69L63.75,69.62a12.17,12.17,0,0,0-1.19,4.74v51.28a13.2,13.2,0,0,0,2.32,6.76Z"/><path class="cls-4" d="M113.71,46.45H90.46a11.86,11.86,0,0,0-4.37,1l6.12,14.78.88,2.69,18-1.84.85-.85,6.13-14.78A11.81,11.81,0,0,0,113.71,46.45Z"/><path class="cls-5" d="M90.46,153.55h23.25a12,12,0,0,0,4.39-1L112,137.75l-.85-.85-18-1.84-.88,2.69-6.12,14.78A11.86,11.86,0,0,0,90.46,153.55Z"/><path class="cls-2" d="M82.48,49.76l-8.3,8.31-8.3,8.3a11.56,11.56,0,0,0-2.34,3.71l14.82,6.14,2.52,1.29L92.33,63.45v-1.2L86.19,47.42A11.73,11.73,0,0,0,82.48,49.76Z"/><path class="cls-4" d="M78.36,123.78l-14.82,6.14a11.56,11.56,0,0,0,2.34,3.71l8.3,8.3,8.3,8.31a11.91,11.91,0,0,0,3.71,2.34l6.14-14.83v-1.2L80.88,122.49Z"/><path class="cls-6" d="M138.32,66.38,121.7,49.76A11.73,11.73,0,0,0,118,47.42l-6.14,14.83v1.2L123.3,77.51l2.52-1.29,14.83-6.14A11.77,11.77,0,0,0,138.32,66.38Z"/><path class="cls-3" d="M121.7,150.24l16.62-16.62a11.77,11.77,0,0,0,2.33-3.7l-14.83-6.14-2.52-1.29-11.45,14.06v1.2L118,152.58A11.73,11.73,0,0,0,121.7,150.24Z"/><polygon class="cls-7" points="92.33 137.75 78.36 123.78 78.36 76.22 92.33 62.25 111.85 62.25 125.82 76.22 125.82 123.78 111.85 137.75 92.33 137.75"/><polygon class="cls-8" points="125.82 78.67 78.36 112.98 78.36 123.78 81.78 127.2 125.82 95.36 125.82 78.67"/><polygon class="cls-8" points="125.82 110.39 125.82 103.97 86.78 132.19 90.51 135.92 125.82 110.39"/><path class="cls-9" d="M74.42,78.66c-5.06,1.64-6.38,3-8,8-1.64-5.05-3-6.38-8-8,5-1.63,6.38-3,8-8C68,75.7,69.36,77,74.42,78.66Z"/><path class="cls-9" d="M82.29,65.27c-2.75.89-3.46,1.61-4.35,4.35-.89-2.74-1.62-3.46-4.36-4.35,2.74-.89,3.46-1.61,4.35-4.35C78.82,63.66,79.54,64.38,82.29,65.27Z"/><path class="cls-9" d="M136.4,126.4c-2.74.89-3.46,1.61-4.35,4.35-.89-2.74-1.61-3.46-4.36-4.35,2.75-.89,3.47-1.61,4.35-4.35C132.94,124.79,133.66,125.51,136.4,126.4Z"/></g></svg>