<svg xmlns="http://www.w3.org/2000/svg" viewBox="0 0 200 200"><defs><style>.cls-1{isolation:isolate;}.cls-2{fill:#2b2054;}.cls-3{fill:#ffb0d0;}.cls-4{fill:#fef8a6;mix-blend-mode:overlay;}.cls-5{fill:#ed5f91;}.cls-6{fill:#ff82af;}.cls-7{fill:#dc4b7f;}.cls-8{fill:#0074c2;fill-opacity:0.1;}.cls-9{fill:#ed5a9f;}.cls-10{fill:#ff7ab1;}.cls-11{fill:#fff;}</style></defs><title>crystal3</title><g class="cls-1"><g id="objects"><rect class="cls-2" x="-6.33" y="-6.33" width="212.67" height="212.67"/><path class="cls-3" d="M143.63,58.12a9.13,9.13,0,0,0-7.48-4.68H63.85a9.13,9.13,0,0,0-7.48,4.68L43,85.6a7.76,7.76,0,0,0,1.43,8.33l51.91,51.12a5.32,5.32,0,0,0,7.42,0l51.91-51.12a7.76,7.76,0,0,0,1.43-8.33Z"/><path class="cls-4" d="M130.31,67.16c-3.21-3-6.44-6-9.74-9l-.42-.37L68,95.49l7.92,11Z"/><path class="cls-4" d="M139.06,75.35c-1.2-1.1-2.38-2.21-3.57-3.32L74.86,115.86l3,4.21,61.46-44.43Z"/><path class="cls-5" d="M157.32,91a7.55,7.55,0,0,0-.27-5.39L143.63,58.12a8.35,8.35,0,0,0-3.07-3.25L128.4,90.11Z"/><path class="cls-5" d="M71.6,90.11,100,53.44H63.85A8.56,8.56,0,0,0,59.21,55Z"/><path class="cls-6" d="M140.79,55a8.58,8.58,0,0,0-4.64-1.59H100l28.4,36.67Z"/><path class="cls-7" d="M59.36,54.92a8.36,8.36,0,0,0-3,3.2L43,85.6a7.51,7.51,0,0,0-.44,4.73L72,91.1Z"/><path class="cls-8" d="M59.36,54.92a8.36,8.36,0,0,0-3,3.2L43,85.6a7.51,7.51,0,0,0-.44,4.73L72,91.1Z"/><path class="cls-9" d="M44.38,93.93l51.91,51.12a5.19,5.19,0,0,0,2.61,1.38L71.6,90.11H42.46A7.29,7.29,0,0,0,44.38,93.93Z"/><path class="cls-7" d="M101.1,146.43a5.19,5.19,0,0,0,2.61-1.38l51.91-51.12a7.29,7.29,0,0,0,1.92-3.82H128.4Z"/><path class="cls-8" d="M101.1,146.43a5.19,5.19,0,0,0,2.61-1.38l51.91-51.12a7.29,7.29,0,0,0,1.92-3.82H128.4Z"/><path class="cls-10" d="M71.6,90.11l27.3,56.32a5.43,5.43,0,0,0,2.2,0l27.3-56.32Z"/><path class="cls-11" d="M73.53,73.61c-5,1.64-6.37,3-8,8-1.64-5-3-6.38-8-8,5.06-1.64,6.39-3,8-8C67.15,70.66,68.48,72,73.53,73.61Z"/><path class="cls-11" d="M87.27,62.16c-2.74.89-3.46,1.62-4.35,4.36-.89-2.74-1.61-3.47-4.36-4.35,2.75-.89,3.47-1.61,4.35-4.36C83.81,60.56,84.53,61.28,87.27,62.16Z"/><path class="cls-11" d="M89.34,112.91c-2.74.89-3.46,1.61-4.35,4.35-.89-2.74-1.61-3.46-4.36-4.35,2.75-.89,3.47-1.61,4.36-4.35C85.88,111.3,86.6,112,89.34,112.91Z"/></g></g></svg>