<svg xmlns="http://www.w3.org/2000/svg" viewBox="0 0 200 200"><defs><style>.cls-1{fill:#2b2054;}.cls-2{fill:#8cc63f;}.cls-3{fill:#62c765;}.cls-4{fill:#55b034;}.cls-5{fill:#c2e070;}.cls-6{fill:#269468;}.cls-7{fill:#69c97d;}.cls-8{fill:#e2ed7a;}.cls-9{fill:#fff;}</style></defs><title>crystal4</title><g id="objects"><rect class="cls-1" x="-6.33" y="-6.33" width="212.67" height="212.67"/><path class="cls-2" d="M102.85,43.13a3.77,3.77,0,0,0-5.69,0L67.7,75.71a12.78,12.78,0,0,0-2.85,7.39v33.8a12.73,12.73,0,0,0,2.85,7.38l29.46,32.59a3.77,3.77,0,0,0,5.69,0l29.45-32.59a12.73,12.73,0,0,0,2.85-7.38V83.1a12.78,12.78,0,0,0-2.85-7.39Z"/><path class="cls-3" d="M66.88,76.82a12.93,12.93,0,0,0-2,6.28v33.8a12.73,12.73,0,0,0,2.85,7.38l1.18,1.31c8.17-3.49,17.19-7.45,18.11-7.8,1.72-.65,0-31.6,0-31.6Z"/><path class="cls-4" d="M67.7,75.71a11.68,11.68,0,0,0-2.09,3.69L86,87l14-17.61V41.84a3.82,3.82,0,0,0-2.84,1.29Z"/><path class="cls-5" d="M114.21,87l20.18-7.57a11.68,11.68,0,0,0-2.09-3.69L102.85,43.13A3.86,3.86,0,0,0,100,41.84V69.36Z"/><path class="cls-6" d="M85.72,113.05l-20,7.88a11.63,11.63,0,0,0,2,3.35l29.46,32.59a3.82,3.82,0,0,0,2.84,1.29V131Z"/><path class="cls-7" d="M132.3,124.28a11.63,11.63,0,0,0,2-3.35l-20-7.88L100,131v27.15a3.86,3.86,0,0,0,2.85-1.29Z"/><polygon class="cls-8" points="81.82 114.6 81.82 85.39 100 65.29 118.18 85.39 118.18 114.6 100 134.71 81.82 114.6"/><path class="cls-9" d="M81.82,103.86l32.08-23.2,4.28,4.74v5.78l-34.8,25.16-1.56-1.74Zm36.36-.43V98.2l-31,22.38,2.86,3.17Z"/><path class="cls-9" d="M91.46,72.67c-4.66,1.52-5.88,2.74-7.39,7.4-1.51-4.66-2.74-5.88-7.4-7.39,4.66-1.51,5.88-2.74,7.39-7.39C85.58,69.94,86.8,71.17,91.46,72.67Z"/><path class="cls-9" d="M76.67,82c-2.53.82-3.19,1.48-4,4-.82-2.52-1.49-3.19-4-4,2.53-.82,3.19-1.48,4-4C73.47,80.5,74.14,81.16,76.67,82Z"/></g></svg>